<?xml version="1.0" encoding="UTF-8" standalone="no"?>
<svg
   xmlns:dc="http://purl.org/dc/elements/1.1/"
   xmlns:cc="http://creativecommons.org/ns#"
   xmlns:rdf="http://www.w3.org/1999/02/22-rdf-syntax-ns#"
   xmlns:svg="http://www.w3.org/2000/svg"
   xmlns="http://www.w3.org/2000/svg"
   xmlns:sodipodi="http://sodipodi.sourceforge.net/DTD/sodipodi-0.dtd"
   xmlns:inkscape="http://www.inkscape.org/namespaces/inkscape"
   inkscape:version="1.0 (4035a4fb49, 2020-05-01)"
   sodipodi:docname="external-link.svg"
   id="svg4"
   version="1.1"
   fill="none"
   viewBox="0 0 17.002346 17.002344"
   height="11.334896"
   width="11.334897">
  <metadata
     id="metadata10">
    <rdf:RDF>
      <cc:Work
         rdf:about="">
        <dc:format>image/svg+xml</dc:format>
        <dc:type
           rdf:resource="http://purl.org/dc/dcmitype/StillImage" />
        <dc:title></dc:title>
      </cc:Work>
    </rdf:RDF>
  </metadata>
  <defs
     id="defs8" />
  <sodipodi:namedview
     inkscape:current-layer="svg4"
     inkscape:window-maximized="1"
     inkscape:window-y="-9"
     inkscape:window-x="1911"
     inkscape:cy="6"
     inkscape:cx="5.334897"
     inkscape:zoom="50.105147"
     showgrid="false"
     id="namedview6"
     inkscape:window-height="1001"
     inkscape:window-width="1920"
     inkscape:pageshadow="2"
     inkscape:pageopacity="0"
     guidetolerance="10"
     gridtolerance="10"
     objecttolerance="10"
     borderopacity="1"
     bordercolor="#666666"
     pagecolor="#333333" />
  <g
     transform="translate(-3.9976545,-3)"
     id="Interface / External_Link">
    <path
       stroke-linejoin="round"
       stroke-linecap="round"
       stroke-width="2"
       stroke="#ffffff"
       d="m 10.0002,5 h -1.8 C 7.08009,5 6.51962,5 6.0918,5.21799 5.71547,5.40973 5.40973,5.71547 5.21799,6.0918 5,6.51962 5,7.08009 5,8.2002 v 7.6 c 0,1.1201 0,1.6799 0.21799,2.1077 0.19174,0.3763 0.49748,0.6826 0.87381,0.8743 C 6.5192,19 7.07899,19 8.19691,19 h 7.60619 c 1.1179,0 1.6769,0 2.1043,-0.2178 0.3763,-0.1917 0.6831,-0.4983 0.8748,-0.8746 C 19,17.4802 19,16.921 19,15.8031 V 14 M 20,9 V 4 m 0,0 h -5 m 5,0 -7,7"
       id="Vector" />
  </g>
</svg>
